<svg xmlns="http://www.w3.org/2000/svg" width="608.367" height="171.351" viewBox="0 0 608.367 171.351"><defs><style>.a{fill:none;stroke:#00896b;stroke-miterlimit:10;}.b{fill:#464545;}.c{fill:#00896b;}</style></defs><g transform="translate(-1404.693 -6.949)"><line class="a" y1="5.498" x2="88.857" transform="translate(1924.172 86.65)"/><line class="a" y1="5.235" x2="84.612" transform="translate(1404.724 119.05)"/><g transform="translate(1528.887 6.949)"><path class="b" d="M1502.387,37.86v65.21h-16.512V37.86a13.815,13.815,0,1,0-27.626,0v65.21h-16.521V24.23h-7.889V7.7h8.265a16.133,16.133,0,0,1,12.2,5.578,30.32,30.32,0,0,1,48.083,24.577Z" transform="translate(-1433.839 -5.039)"/><path class="b" d="M1513.585,39.288v32c0,17.549-13.579,31.771-30.334,31.771s-30.325-14.222-30.325-31.771v-32c.021-17.532,13.583-31.746,30.325-31.763C1500,7.542,1513.568,21.747,1513.585,39.288Zm-15.774,0c0-8.427-6.517-15.25-14.56-15.25s-14.559,6.823-14.559,15.25v32c0,8.423,6.516,15.25,14.559,15.25s14.56-6.828,14.56-15.25Z" transform="translate(-1371.528 -5.069)"/><path class="b" d="M1546.481,7.9l-30.4,93.983h-17.327L1468.349,7.9h17.327l21.737,67.189L1529.141,7.9Z" transform="translate(-1321.178 -3.851)"/><path class="b" d="M1548.641,39.164v63.717h-16.465V68.99l-27.642-.179V102.8l-16.551.183V39.164c.016-17.51,13.582-31.694,30.329-31.716C1535.059,7.469,1548.625,21.653,1548.641,39.164Zm-15.859,13.306V39.164c0-8.4-5.8-15.527-13.822-15.527s-13.822,6.951-13.822,15.348v13.3Z" transform="translate(-1257.084 -5.32)"/><path class="b" d="M1562.95,78.688c-.661,15.05-13.139,26.4-29.012,26.4-19.984,0-26.854-14.031-28.483-18.325l15.728-5.97c1.292,3.412,4.559,7.476,12.755,7.476,6.806,0,11.941-4.341,12.2-10.325.093-2.154.392-8.713-14.922-13.975-22.495-7.715-26.713-20.909-26.283-30.62.661-15.05,13.14-26.4,29.012-26.4,19.984,0,26.858,14.022,28.488,18.329l-15.728,5.958c-1.3-3.4-4.563-7.463-12.76-7.463-6.8,0-11.941,4.341-12.2,10.312-.094,2.158-.392,8.721,14.926,13.975C1559.171,55.774,1563.38,68.973,1562.95,78.688Z" transform="translate(-1201.836 -6.949)"/></g><g transform="translate(1536.572 110.092)"><path class="c" d="M1482.18,85.985V70.424c-1.744,8.435-10.039,17.306-22.4,17.306-13.092,0-24.142-10.47-24.142-26.611s11.05-26.47,24.142-26.47c12.359,0,20.654,8.87,22.4,17.306V36.392h1.889V85.985Zm-44.65-24.867c0,15.412,10.179,24.867,22.253,24.867s22.542-9.455,22.542-24.867c0-15.127-10.474-24.726-22.542-24.726S1437.53,45.992,1437.53,61.118Z" transform="translate(-1435.641 -19.666)"/><path class="c" d="M1471.846,84.65H1470.1l-20.07-49.593h1.894l19.05,47.119,19.05-47.119h1.893Z" transform="translate(-1388.673 -18.331)"/><path class="c" d="M1487.171,87.989c-14.1,0-25.447-10.615-25.447-26.756,0-16,11.343-26.62,25.447-26.62s25.455,10.619,25.455,26.62C1512.626,77.374,1501.282,87.989,1487.171,87.989Zm0-51.627c-13.233,0-23.558,9.745-23.558,24.871,0,15.267,10.324,25.012,23.558,25.012s23.566-9.745,23.566-25.012C1510.737,46.106,1500.408,36.361,1487.171,36.361Z" transform="translate(-1350.491 -19.781)"/><path class="c" d="M1501.286,87.729c-13.234,0-24.867-10.035-24.867-26.611,0-16.436,11.633-26.47,24.867-26.47,5.382,0,10.759,1.015,15.272,4.218v1.889a25.947,25.947,0,0,0-14.542-4.363c-12.943,0-23.707,9.015-23.707,24.726s10.764,24.867,23.707,24.867c4.358,0,10.469-1.019,14.542-4.218v1.893C1512.195,86.71,1506.523,87.729,1501.286,87.729Z" transform="translate(-1302.518 -19.666)"/><path class="c" d="M1535.165,85.985V70.424c-1.744,8.435-10.033,17.306-22.4,17.306-13.087,0-24.142-10.47-24.142-26.611s11.054-26.47,24.142-26.47c12.364,0,20.653,8.87,22.4,17.306V36.392h1.89V85.985Zm-44.65-24.867c0,15.412,10.18,24.867,22.253,24.867s22.543-9.455,22.543-24.867c0-15.127-10.474-24.726-22.543-24.726S1490.515,45.992,1490.515,61.118Z" transform="translate(-1262.667 -19.666)"/><path class="c" d="M1515.957,49.6V97.454h-1.889V49.6h-11.054V47.861h11.054V31.135h1.889V47.861h11.054V49.6Z" transform="translate(-1215.695 -31.135)"/><path class="c" d="M1526.336,87.729a34.785,34.785,0,0,1-15.412-4.068l.29-1.748a31.957,31.957,0,0,0,15.268,4.073c8.585,0,14.981-3.783,14.981-12.363,0-6.691-5.088-9.455-15.557-12.653-9.019-2.763-13.821-6.4-13.821-13.668s5.821-12.653,15.565-12.653c4.8,0,9.885,2.034,12.359,3.2l-.29,1.744a29.248,29.248,0,0,0-12.069-3.2c-9.6,0-13.672,4.943-13.672,10.909,0,6.832,4.8,9.6,13.088,12.214,9.745,2.908,16.286,6.546,16.286,13.962C1543.352,83.512,1535.646,87.729,1526.336,87.729Z" transform="translate(-1189.873 -19.666)"/></g></g></svg>